<?xml version="1.0" standalone="no"?>
<!DOCTYPE svg PUBLIC "-//W3C//DTD SVG 20010904//EN"
 "http://www.w3.org/TR/2001/REC-SVG-20010904/DTD/svg10.dtd">
<svg version="1.0" xmlns="http://www.w3.org/2000/svg"
 width="546.000000pt" height="457.000000pt" viewBox="0 0 546.000000 457.000000"
 preserveAspectRatio="xMidYMid meet">

<g transform="translate(0.000000,457.000000) scale(0.100000,-0.100000)"
fill="#000000" stroke="none">
<path d="M2643 4449 c-187 -22 -335 -77 -653 -242 -377 -195 -406 -208 -745
-322 -233 -79 -367 -131 -468 -181 -299 -151 -448 -361 -513 -724 -14 -79 -18
-185 -21 -630 -5 -568 2 -718 39 -890 27 -128 69 -234 129 -326 138 -212 317
-319 804 -484 337 -114 428 -152 690 -291 116 -61 248 -128 294 -150 343 -161
632 -180 951 -62 52 19 235 106 405 193 348 178 371 188 697 299 128 43 269
94 313 111 421 167 599 383 672 818 16 95 18 174 18 702 0 574 -1 599 -23 719
-74 407 -252 619 -659 782 -43 17 -175 64 -293 105 -286 97 -409 145 -527 206
-540 278 -627 316 -803 351 -103 21 -221 27 -307 16z m313 -169 c127 -29 269
-91 544 -235 292 -153 383 -192 715 -305 132 -45 283 -100 335 -122 331 -140
472 -310 537 -648 16 -85 18 -158 18 -705 0 -547 -2 -620 -18 -705 -38 -198
-94 -322 -194 -430 -133 -143 -254 -203 -738 -365 -233 -78 -329 -117 -515
-213 -80 -41 -212 -109 -295 -152 -465 -238 -719 -239 -1180 -4 -88 44 -225
115 -305 156 -191 98 -274 132 -558 227 -380 127 -476 170 -608 269 -147 111
-234 265 -280 498 -13 64 -17 182 -21 626 -5 558 0 697 32 853 34 166 119 323
221 413 123 106 252 168 612 292 410 141 455 160 772 330 441 235 647 284 926
220z"/>
<path d="M2545 4206 c-158 -42 -209 -65 -636 -290 -171 -90 -301 -143 -584
-238 -559 -188 -707 -291 -800 -555 -57 -165 -60 -205 -60 -863 0 -541 2 -615
18 -699 40 -208 116 -350 241 -448 105 -82 257 -150 575 -258 350 -119 431
-153 729 -310 411 -216 503 -248 717 -249 125 -1 150 2 234 27 123 37 230 86
501 228 276 145 360 180 719 304 155 53 320 114 367 135 280 129 396 281 450
593 20 116 30 1014 14 1227 -17 217 -58 360 -138 476 -49 72 -76 98 -171 163
-94 64 -233 122 -542 227 -319 108 -425 154 -716 307 -270 142 -377 189 -511
223 -129 33 -280 33 -407 0z m-658 -1514 l20 -28 -21 -25 c-38 -46 -77 -45
-117 5 -16 19 -15 22 4 48 29 39 85 40 114 0z m-294 -18 c23 -7 22 -34 -2 -34
-11 0 -21 -5 -23 -12 -8 -23 34 -143 57 -163 18 -16 21 -23 12 -37 -9 -13 -7
-30 7 -70 34 -96 50 -123 74 -126 15 -2 22 -9 20 -20 -3 -14 -19 -17 -102 -20
-64 -2 -103 1 -112 9 -21 18 -17 29 12 29 20 0 25 4 20 16 -3 9 -9 27 -12 40
-6 23 -10 24 -89 24 -77 0 -83 -1 -89 -22 -12 -47 -8 -58 24 -58 31 0 36 -6
21 -28 -5 -9 -30 -12 -87 -10 -64 2 -79 6 -82 20 -2 12 5 18 24 20 25 3 30 11
56 88 23 69 27 89 17 104 -9 16 -8 22 3 30 20 15 36 47 54 104 19 64 18 72
-11 72 -26 0 -33 18 -14 37 11 11 187 16 222 7z m1615 -6 c18 -15 15 -28 -7
-28 -11 0 -23 -5 -26 -10 -11 -18 36 -144 62 -166 16 -14 21 -24 14 -28 -18
-11 -13 -41 20 -126 l30 -80 40 0 39 0 0 62 c0 41 -5 67 -15 78 -14 15 -14 18
0 30 9 7 15 29 15 51 0 32 -4 39 -19 39 -11 0 -23 5 -26 11 -11 17 26 49 57
49 16 0 38 4 48 10 27 14 50 2 50 -28 l0 -26 28 27 c42 40 82 44 119 13 25
-21 32 -23 37 -11 3 8 15 15 26 15 11 0 20 7 20 15 0 26 29 75 45 75 8 0 19 9
25 20 6 11 17 20 25 20 12 0 15 -15 15 -65 l0 -65 50 0 c34 0 50 -4 50 -13 0
-23 -23 -37 -62 -37 l-38 0 0 -124 c0 -95 3 -126 14 -135 22 -18 56 3 56 35 0
30 26 42 47 21 14 -13 14 -20 3 -47 -28 -68 -145 -86 -201 -31 -24 25 -29 38
-29 80 0 32 -6 55 -16 66 -11 10 -13 20 -6 28 29 37 18 107 -18 107 -22 0 -28
-28 -9 -47 7 -7 2 -17 -19 -32 -38 -27 -70 -27 -93 1 -19 21 -19 21 1 35 32
22 22 61 -12 48 -32 -13 -47 -60 -48 -156 -2 -125 -4 -119 25 -119 27 0 28 -1
19 -24 -5 -13 -34 -16 -202 -16 -187 0 -222 5 -222 31 0 5 9 9 20 9 22 0 23 3
14 49 l-6 31 -83 0 -82 0 -10 -34 c-12 -40 -9 -46 24 -46 18 0 24 -5 21 -17
-3 -15 -15 -18 -83 -18 -67 0 -80 3 -83 17 -2 12 5 18 24 20 25 3 30 11 56 93
24 78 26 91 13 104 -12 12 -11 17 10 33 16 12 32 44 45 87 25 84 25 81 -5 81
-26 0 -33 18 -14 37 14 14 209 15 227 1z m1033 -128 c9 -43 -7 -90 -32 -90
-12 0 -19 7 -19 19 0 31 -29 52 -64 49 -59 -6 -35 -78 26 -78 15 0 28 -5 28
-11 0 -7 18 -31 40 -55 60 -66 52 -132 -21 -170 -26 -13 -48 -15 -159 -13 -8
0 -25 -3 -37 -6 -19 -6 -23 -3 -23 13 0 12 -4 23 -9 27 -15 8 -1 78 19 99 22
23 39 14 33 -16 -3 -14 4 -34 17 -51 28 -36 93 -39 111 -5 10 19 8 25 -20 50
-19 17 -43 28 -61 28 -17 0 -30 5 -30 11 0 6 -13 27 -30 46 -32 36 -40 86 -19
125 19 35 94 61 154 53 35 -4 55 -2 60 5 12 19 29 5 36 -30z m-2363 18 c7 -7
12 -41 12 -81 0 -55 4 -73 18 -83 16 -13 16 -15 0 -25 -15 -8 -18 -24 -18 -84
0 -41 4 -76 9 -79 13 -8 -45 -121 -75 -145 -40 -32 -122 -29 -163 5 -22 18
-31 35 -31 55 0 16 2 29 4 29 2 0 11 3 20 6 10 4 19 -5 30 -29 17 -42 51 -56
75 -33 12 13 17 42 19 134 4 107 2 119 -16 135 -20 19 -20 19 -1 38 28 28 23
83 -8 87 -25 4 -31 30 -11 50 7 7 26 12 43 12 16 0 37 5 45 10 20 13 34 12 48
-2z m335 3 c41 -16 66 -51 72 -100 3 -25 11 -54 16 -65 8 -13 7 -22 0 -29 -6
-6 -11 -39 -11 -74 0 -57 2 -63 21 -63 14 0 19 -5 17 -17 -4 -25 -125 -32
-134 -9 -5 13 -9 13 -31 -1 -34 -22 -109 -20 -142 5 -14 10 -32 32 -40 48 -8
16 -18 32 -24 35 -11 8 36 85 60 97 10 5 45 12 77 15 32 3 63 10 68 15 5 5 8
29 6 53 -3 43 -4 44 -41 47 -40 3 -61 -18 -38 -41 16 -16 14 -23 -15 -42 -24
-15 -28 -15 -60 0 -19 9 -34 20 -34 24 0 21 49 78 80 93 38 20 114 24 153 9z
m307 -16 c13 -15 4 -39 -10 -30 -5 3 -11 1 -14 -4 -8 -13 55 -184 64 -174 13
15 60 166 54 175 -3 5 -12 7 -20 4 -19 -7 -28 12 -14 29 8 10 32 13 83 12 65
-2 72 -4 72 -22 0 -11 -7 -20 -15 -21 -8 -1 -20 -2 -27 -2 -6 -1 -19 -23 -29
-48 -14 -36 -15 -50 -6 -64 9 -15 7 -21 -12 -33 -15 -10 -34 -46 -56 -109 -43
-121 -75 -185 -99 -198 -55 -29 -125 5 -119 58 4 36 39 42 53 10 22 -50 75
-25 75 35 0 40 -56 170 -85 197 -17 16 -22 27 -16 39 6 9 3 30 -7 56 -20 52
-30 65 -53 65 -18 0 -26 20 -14 32 3 3 46 6 95 6 63 0 92 -4 100 -13z m-309
-618 c-1 -4 -1 -27 -1 -52 0 -33 -4 -45 -15 -45 -9 0 -15 9 -15 24 0 40 12 87
22 84 5 -2 9 -7 9 -11z m99 -42 c0 -30 -4 -55 -10 -55 -5 0 -10 25 -10 55 0
30 5 55 10 55 6 0 10 -25 10 -55z m1730 0 c0 -30 -4 -55 -10 -55 -5 0 -10 25
-10 55 0 30 5 55 10 55 6 0 10 -25 10 -55z m40 -6 c0 -27 -4 -49 -10 -49 -5 0
-10 25 -10 56 0 34 4 53 10 49 6 -3 10 -28 10 -56z m-2790 37 c0 -22 -20 -30
-21 -9 -1 17 -2 17 -6 0 -5 -20 -23 -13 -23 9 0 8 10 14 25 14 15 0 25 -6 25
-14z m88 -3 c2 -8 -6 -13 -21 -13 -27 0 -40 -19 -27 -40 12 -19 65 1 65 26 0
20 22 29 41 16 7 -4 14 -20 15 -37 4 -27 1 -30 -28 -33 -22 -2 -33 1 -33 9 0
10 -3 10 -12 1 -29 -29 -78 -7 -78 34 0 43 65 74 78 37z m510 0 c2 -8 -6 -13
-23 -13 -22 0 -26 -4 -23 -22 2 -17 9 -22 26 -20 31 3 24 -22 -7 -26 -46 -7
-69 48 -35 83 18 18 55 17 62 -2z m32 8 c0 -5 8 -11 19 -14 22 -6 36 -77 14
-77 -7 0 -13 11 -13 25 0 14 -4 25 -10 25 -5 0 -10 -11 -10 -25 0 -14 -4 -25
-10 -25 -5 0 -10 23 -10 50 0 28 5 50 10 50 6 0 10 -4 10 -9z m660 -22 l6 -24
7 28 c9 33 23 35 33 5 l7 -23 9 24 c15 41 28 10 15 -36 -11 -41 -37 -60 -37
-28 0 8 -4 15 -10 15 -5 0 -10 -7 -10 -15 0 -34 -28 -12 -39 29 -14 56 -14 59
1 54 7 -3 15 -15 18 -29z m120 22 c0 -5 9 -11 20 -14 15 -4 20 -14 20 -41 0
-20 -4 -36 -10 -36 -5 0 -10 11 -10 25 0 14 -4 25 -10 25 -5 0 -10 -11 -10
-25 0 -25 -14 -33 -25 -15 -9 15 5 90 16 90 5 0 9 -4 9 -9z m368 -8 c2 -7 -5
-13 -15 -13 -15 0 -16 -2 -3 -11 11 -8 12 -12 3 -16 -18 -7 -16 -23 2 -23 8 0
15 -4 15 -10 0 -5 -13 -10 -30 -10 -29 0 -30 2 -30 43 0 24 3 47 7 51 11 10
46 3 51 -11z m376 11 c23 -9 19 -24 -6 -25 l-23 0 21 -9 c30 -12 38 -28 23
-46 -13 -16 -66 -15 -61 1 2 6 12 9 24 7 12 -2 18 0 14 7 -4 6 -13 11 -21 11
-18 0 -28 30 -14 46 13 16 20 17 43 8z m62 -8 c16 -17 19 -36 4 -36 -5 0 -7
-7 -4 -15 9 -23 24 -18 24 9 0 29 14 40 37 32 12 -5 14 -9 5 -18 -7 -7 -12
-22 -12 -35 0 -19 -5 -22 -37 -20 -31 2 -38 6 -45 32 -7 28 -3 65 8 65 3 0 12
-6 20 -14z m184 -7 c0 -18 2 -19 15 -9 18 15 34 5 17 -12 -8 -8 -7 -17 5 -34
13 -20 13 -24 1 -24 -8 0 -19 5 -26 12 -9 9 -12 9 -12 0 0 -7 -7 -12 -15 -12
-11 0 -15 12 -15 50 0 38 4 50 15 50 9 0 15 -9 15 -21z m245 11 c3 -6 -1 -13
-9 -16 -10 -4 -16 -19 -16 -40 0 -19 -4 -34 -10 -34 -5 0 -10 16 -10 35 0 24
-5 35 -15 35 -16 0 -20 12 -8 23 10 11 61 8 68 -3z m255 -40 c0 -27 -4 -50
-10 -50 -11 0 -24 65 -16 85 12 32 26 13 26 -35z m40 29 c0 -11 -4 -17 -10
-14 -5 3 -10 13 -10 21 0 8 5 14 10 14 6 0 10 -9 10 -21z m30 7 c0 -8 -4 -18
-10 -21 -5 -3 -10 3 -10 14 0 12 5 21 10 21 6 0 10 -6 10 -14z m-2730 -27 c15
-27 12 -59 -5 -59 -9 0 -15 9 -15 25 0 14 -4 25 -10 25 -5 0 -10 -11 -10 -25
0 -14 -4 -25 -10 -25 -5 0 -10 17 -10 39 0 35 3 39 25 39 15 0 30 -8 35 -19z
m39 -1 l8 -23 7 23 c8 25 26 30 26 7 0 -23 -22 -65 -35 -65 -9 0 -35 53 -35
73 0 16 21 5 29 -15z m114 -8 c8 -21 18 -30 32 -29 17 1 18 2 2 6 -29 8 -18
48 13 48 22 0 25 -4 25 -35 l0 -35 -65 0 -65 0 -1 30 c-2 38 2 45 27 45 14 0
25 -10 32 -30z m337 19 c0 -8 4 -8 15 1 33 27 82 -23 54 -56 -19 -23 -63 -14
-67 14 -5 30 -22 28 -22 -3 0 -14 -4 -25 -10 -25 -5 0 -10 18 -10 40 0 33 3
40 20 40 11 0 20 -5 20 -11z m148 -31 c2 -22 -1 -38 -7 -38 -6 0 -11 11 -11
25 0 14 -4 25 -10 25 -5 0 -10 -11 -10 -25 0 -14 -4 -25 -10 -25 -5 0 -10 18
-10 41 0 38 1 40 28 37 23 -3 27 -8 30 -40z m110 25 c2 -8 -5 -13 -18 -13 -13
0 -20 -5 -17 -12 2 -7 12 -12 21 -12 9 1 16 -5 16 -13 0 -10 -9 -13 -27 -11
-32 3 -43 38 -22 64 14 17 40 15 47 -3z m110 5 c8 -8 15 -8 26 2 18 14 50 6
44 -12 -5 -14 15 -38 31 -38 6 0 11 -4 11 -9 0 -12 -88 -13 -95 -1 -4 6 4 10
17 11 15 0 18 3 8 6 -8 3 -18 11 -22 17 -5 8 -8 7 -8 -1 0 -7 -12 -14 -27 -14
-24 -2 -25 -2 -5 -6 29 -6 29 -23 -1 -23 -43 0 -60 35 -31 64 18 19 36 20 52
4z m430 0 c20 -20 13 -38 -15 -39 -24 -2 -25 -2 -5 -6 29 -6 29 -23 -1 -23
-43 0 -60 35 -31 64 19 19 36 20 52 4z m62 3 c0 -6 -4 -13 -10 -16 -5 -3 -10
-17 -10 -31 0 -13 -4 -24 -10 -24 -5 0 -10 18 -10 40 0 33 3 40 20 40 11 0 20
-4 20 -9z m70 -11 c8 -15 8 -21 -2 -24 -39 -13 -42 -14 -20 -15 29 -1 29 -21
-1 -21 -44 0 -65 49 -29 69 26 16 40 13 52 -9z m173 5 c8 10 16 14 19 9 7 -12
-20 -74 -32 -74 -12 0 -39 62 -32 74 3 5 11 1 19 -9 13 -18 13 -18 26 0z m81
9 c25 -10 20 -44 -6 -45 l-23 -2 23 -4 c34 -7 26 -25 -10 -21 -26 2 -34 8 -36
26 -3 23 13 52 28 52 5 0 15 -3 24 -6z m95 -11 c9 -17 10 -17 16 0 9 21 25 23
25 2 0 -22 -39 -95 -50 -95 -12 0 -13 11 -1 29 10 16 -7 63 -20 55 -5 -3 -9
-16 -9 -30 0 -15 -6 -24 -15 -24 -10 0 -15 10 -15 33 0 19 3 37 7 40 13 14 52
7 62 -10z m341 3 c20 -25 8 -61 -22 -64 -36 -4 -53 26 -32 56 18 25 37 28 54
8z m165 -2 c18 -18 11 -29 -20 -37 -18 -4 -18 -5 3 -6 29 -1 29 -21 -1 -21
-27 0 -47 17 -47 40 0 19 19 40 36 40 7 0 20 -7 29 -16z m189 10 c25 -10 20
-44 -6 -45 l-23 -2 23 -4 c34 -7 26 -25 -10 -21 -26 2 -34 8 -36 26 -3 23 13
52 28 52 5 0 15 -3 24 -6z m151 -34 c0 -31 -3 -35 -27 -38 -16 -2 -28 1 -28 7
0 6 8 11 17 11 15 0 15 1 -2 14 -25 18 -13 49 17 44 19 -2 23 -9 23 -38z
m-1645 9 c0 -5 -7 -9 -15 -9 -15 0 -20 12 -9 23 8 8 24 -1 24 -14z"/>
<path d="M1797 2677 c-3 -8 -1 -20 4 -28 6 -10 9 -7 9 14 0 29 -5 35 -13 14z"/>
<path d="M1428 2488 c-15 -51 -30 -101 -33 -110 -6 -16 0 -18 59 -18 36 0 66
1 66 3 0 1 -15 51 -33 110 l-33 108 -26 -93z"/>
<path d="M1507 2535 c9 -42 81 -252 82 -239 1 6 -6 31 -14 54 -8 23 -15 52
-15 63 0 11 -8 39 -19 61 -10 23 -23 52 -29 66 -11 24 -11 24 -5 -5z"/>
<path d="M3056 2559 c-13 -39 -56 -188 -56 -193 0 -3 29 -6 64 -6 l64 0 -30
103 c-32 110 -35 117 -42 96z"/>
<path d="M3111 2555 c0 -5 17 -64 39 -130 22 -66 38 -109 35 -95 -3 14 -8 45
-12 70 -3 25 -11 51 -17 59 -6 7 -19 34 -28 60 -9 25 -17 42 -17 36z"/>
<path d="M3748 2458 c-2 -40 0 -93 3 -118 4 -29 7 -3 7 73 2 129 -5 159 -10
45z"/>
<path d="M3418 2423 c-2 -26 -1 -68 3 -93 5 -35 7 -24 8 48 1 98 -5 123 -11
45z"/>
<path d="M4020 2444 c0 -16 62 -70 98 -84 18 -7 44 -26 57 -42 26 -31 32 -30
15 2 -6 11 -38 35 -73 55 -34 20 -70 46 -79 58 -10 12 -18 17 -18 11z"/>
<path d="M1809 2428 c-2 -24 -1 -83 2 -133 5 -87 6 -86 7 43 2 130 -3 173 -9
90z"/>
<path d="M2214 2380 c0 -52 1 -74 3 -47 2 26 2 68 0 95 -2 26 -3 4 -3 -48z"/>
<path d="M2116 2357 c-22 -16 -19 -95 5 -110 34 -21 49 -2 49 63 0 51 -3 60
-18 60 -10 0 -26 -6 -36 -13z"/>
<path d="M2014 2323 c-8 -12 -7 -24 3 -45 8 -15 15 -28 17 -28 2 0 -4 68 -7
83 -1 4 -7 -1 -13 -10z"/>
<path d="M2433 2457 c4 -11 10 -29 13 -42 7 -30 53 -123 54 -109 0 13 -59 156
-68 164 -3 3 -2 -3 1 -13z"/>
<path d="M2042 1868 c6 -18 28 -21 28 -4 0 9 -7 16 -16 16 -9 0 -14 -5 -12
-12z"/>
<path d="M3606 1883 c-12 -12 -6 -33 9 -33 8 0 15 6 15 14 0 17 -14 28 -24 19z"/>
</g>
</svg>
